<svg width="46" height="46" viewBox="0 0 46 46" fill="none" xmlns="http://www.w3.org/2000/svg">
<path d="M40.9682 18.8313C40.9682 18.8313 38.8119 20.8438 35.1463 23.2156C34.14 17.3937 31.3369 10.2063 25.8744 1.4375C25.8744 1.4375 24.0775 10.8531 18.1119 19.6938C15.5244 15.6687 14.3744 12.5062 14.3744 12.5062C-4.31309 31.2656 11.2119 44.5625 20.9869 44.5625C33.4932 44.5625 44.49 38.525 40.9682 18.8313Z" fill="#FF9D33"/>
<path d="M33.5653 35.5064C34.6434 33.1346 35.4341 30.0439 35.5778 26.1627C35.5778 26.1627 34.0684 27.4564 31.4809 29.1096C30.7622 25.2283 28.8216 20.4846 25.0122 14.5908C25.0122 14.5908 23.7903 20.8439 19.6216 26.8096C17.8247 24.1502 17.0341 21.9939 17.0341 21.9939C13.9434 26.8814 12.7216 30.7627 12.6497 33.8533C10.9247 33.2064 9.84656 32.7033 9.84656 32.7033C12.7934 41.4721 18.9028 43.4127 21.6341 43.4127C26.5216 43.4127 31.4809 41.9752 36.3684 35.0033C36.3684 34.9314 35.2903 35.2189 33.5653 35.5064Z" fill="#FFCE31"/>
<path d="M15.7408 31.5531C15.7408 31.5531 17.7533 34.2844 19.2627 33.6375C19.2627 33.6375 22.1377 29.1094 26.3064 26.5938C26.3064 26.5938 25.4439 33.4937 26.4502 34.7156C27.7439 36.3687 31.2658 32.9187 31.2658 32.9187C31.2658 37.0156 26.8096 42.1187 22.7846 42.1187C18.9033 42.1187 13.2971 37.6625 15.7408 31.5531Z" fill="#FFDF85"/>
<path d="M35.7941 13.009C37.3035 10.8527 38.3097 8.55273 38.3097 8.55273C40.8253 12.7215 39.316 15.2371 38.2378 16.0277C36.7285 17.1777 34.0691 15.5246 35.7941 13.009Z" fill="#FF9D33"/>
<path d="M8.33752 12.2904C6.82814 9.77481 6.68439 6.6123 6.68439 6.6123C3.09064 12.0029 4.45627 15.0217 5.67814 15.8842C7.25939 17.1061 9.99064 15.2373 8.33752 12.2904Z" fill="#FF9D33"/>
<path d="M16.6749 6.68438C16.8905 4.95938 16.1718 3.23438 16.1718 3.23438C19.5499 5.4625 19.5499 7.33125 19.1186 8.12188C18.4718 9.05625 16.4593 8.625 16.6749 6.68438Z" fill="#FF9D33"/>
</svg>
