<svg width="154" height="188" viewBox="0 0 154 188" fill="none" xmlns="http://www.w3.org/2000/svg">
<g opacity="0.3" filter="url(#filter0_f_9_492)">
<path d="M30.0236 112.657C26.6154 112.886 23.9843 111.738 22.8125 108.386C21.6476 105.066 23.0494 102.335 25.9467 99.7031C22.4306 98.5383 19.6755 96.8389 19.6484 92.8664C19.6261 89.4599 21.5099 87.2814 24.5006 85.8896C24.8147 85.8058 25.1223 85.7324 25.4364 85.6486C27.0523 85.4878 28.835 85.457 29.9441 86.505C31.9753 88.4152 32.2518 87.0235 33.4606 85.3742C35.1214 83.0894 35.4897 81.97 32.6994 80.8123C31.685 80.3849 31.1519 78.8777 30.4076 77.8633C30.3144 77.4169 30.2211 76.9705 30.1213 76.5346C30.2565 73.3392 31.3473 70.6654 34.4838 69.2609C37.9635 67.7037 40.6758 69.0306 43.2844 71.8252C44.5186 68.0834 46.4237 65.297 50.3356 65.0557C53.6811 64.8608 55.7311 66.6525 56.9292 69.588C56.9948 69.9022 57.0505 70.2102 57.1161 70.5243C56.84 71.9595 57.0312 73.7936 56.2074 74.7379C53.9921 77.2929 55.5917 77.5554 57.3624 78.8456C59.4932 80.3976 60.082 79.8739 61.2776 77.8267C61.9504 76.6609 63.5356 76.0196 64.7112 75.1298C65.0419 75.0415 65.3791 74.9428 65.7097 74.8545C69.1537 74.5461 71.7652 75.7254 72.9566 79.0467C74.1381 82.3619 72.8092 85.1079 69.925 87.7193C73.2631 88.9926 76.1463 90.5532 76.1738 94.5692C76.1961 97.9757 74.3323 100.166 71.3885 101.615C71.0082 101.717 70.6345 101.808 70.2642 101.916C68.8572 101.698 67.0995 101.931 66.1186 101.163C64.0001 99.5032 63.5004 100.37 62.2618 102.42C61.0624 104.407 60.364 105.283 62.8525 106.416C63.9903 106.933 64.5645 108.595 65.386 109.728C65.4655 110.109 65.5449 110.489 65.6344 110.875C65.6701 114.304 64.3909 117.037 61.0453 118.401C57.7229 119.751 55.0625 118.672 52.6684 115.776C51.2347 119.44 49.2646 122.375 45.1894 122.503C42.0584 122.597 40.1083 120.866 38.8725 118.167C38.7723 117.688 38.6821 117.214 38.5754 116.745C38.5416 114.328 39.4616 112.215 41.0334 110.382C38.0809 108.071 35.3737 106.56 32.9374 111.19C32.6439 111.748 31.7246 111.985 31.0882 112.364C30.718 112.472 30.3708 112.565 30.0236 112.657ZM51.6564 111.726C50.5534 109.455 56.6731 108.127 52.6088 105.633C50.5367 104.363 49.5827 104.809 48.3406 106.843C45.7222 111.102 51.6646 109.176 51.6564 111.726ZM29.9876 98.6593C32.1174 97.7417 33.8111 104.01 36.358 98.364C38.3779 93.8713 33.8293 95.6178 33.1072 93.7073C32.5979 95.7807 31.0958 96.8624 29.9876 98.6593ZM65.9601 89.1268C60.8063 86.7236 60.9131 86.8172 60.0408 87.9054C57.0274 91.6945 60.8286 92.0937 62.7083 94.1141C63.2123 91.8065 64.7098 90.5776 65.9601 89.1268ZM44.2815 75.6784C43.4004 77.6853 42.5829 79.3697 41.2014 80.9865C43.3087 80.5461 44.0545 85.2431 47.0676 81.4104C50.7887 76.6644 44.1838 78.218 44.2815 75.6784ZM46.2323 92.3245C45.6387 93.4517 43.8914 94.529 46.2747 95.3678C47.4813 95.7962 48.3634 97.4284 49.6353 94.9943C50.5028 93.3402 50.8086 92.6738 49.0078 91.7407C47.6563 91.0367 46.8119 90.337 46.2323 92.3245Z" fill="#E83338"/>
<path d="M56.5413 71.1098C56.4756 70.7957 56.4199 70.4876 56.3542 70.1735C56.4812 69.904 56.6877 69.6395 56.735 69.365C57.2776 65.7817 58.9114 63.0767 62.7248 62.5306C65.8264 62.0871 68.1418 63.4766 69.1547 66.4006C70.4019 69.9864 68.6915 72.6595 65.7202 74.77C65.4929 74.9354 65.3364 75.2303 65.1495 75.4634C64.8188 75.5516 64.4816 75.6503 64.1509 75.7385C60.9288 75.2716 58.4031 73.7113 56.5413 71.1098Z" fill="#E83338"/>
<path d="M66.2233 111.459C66.1438 111.079 66.0643 110.698 65.9748 110.312C66.5334 107.056 68.1748 104.472 70.8522 102.501C71.2324 102.399 71.6061 102.308 71.9764 102.201C72.9494 102.43 73.9416 102.584 74.8757 102.92C77.5186 103.873 79.1648 105.694 79.1476 108.7C79.1282 111.446 77.814 113.55 75.346 114.811C72.6403 116.187 70.2322 115.564 68.1778 113.669C67.4498 113.025 66.8694 112.212 66.2233 111.459Z" fill="#E83338"/>
<path d="M39.1545 116.172C39.2547 116.652 39.345 117.125 39.4517 117.594C39.2324 118.298 39.0066 119.013 38.7773 119.711C37.8155 122.708 35.9709 124.78 32.7717 125.049C29.8375 125.291 27.6783 123.938 26.6375 121.214C25.5117 118.25 26.6133 115.714 28.9513 113.58C29.5004 113.076 30.0695 112.584 30.6186 112.079C30.9658 111.987 31.3195 111.884 31.6666 111.791C34.8052 112.193 37.2643 113.727 39.1545 116.172Z" fill="#E83338"/>
<path d="M24.8517 85.075C24.5375 85.1588 24.23 85.2321 23.9158 85.3159C20.3263 84.5108 16.7922 83.5948 16.6756 78.9047C16.6024 76.1753 17.8996 74.0315 20.3843 72.7664C24.6311 70.6211 27.1487 73.1871 29.5587 75.9476C29.652 76.3939 29.7453 76.8403 29.8452 77.2761C29.1671 80.5027 27.4426 83.066 24.8517 85.075Z" fill="#E83338"/>
<path d="M67.7513 128.699C66.0133 131.615 61.9134 132.709 59.1977 130.99C56.6219 129.356 55.81 125.514 57.473 122.741C59.2175 119.814 63.3009 118.725 66.0266 120.45C68.5858 122.088 69.3977 125.93 67.7513 128.699Z" fill="#E83338"/>
<path d="M9.46789 100.346C6.72979 98.7294 5.90914 94.6374 7.77089 91.8542C9.54419 89.1907 13.3536 88.2093 15.9617 89.7475C18.6998 91.3645 19.5205 95.4565 17.6587 98.2397C15.8954 100.909 12.0761 101.885 9.46789 100.346Z" fill="#E83338"/>
<path d="M21.0888 111.342C19.4204 114.257 15.3506 115.412 12.612 113.752C10.0234 112.182 9.16536 108.371 10.7488 105.592C12.4172 102.677 16.487 101.521 19.2256 103.182C21.8242 104.758 22.6888 108.559 21.0888 111.342Z" fill="#E83338"/>
<path d="M79.4594 97.5974C76.8122 95.7468 76.2661 91.5904 78.3177 88.9225C80.3004 86.3428 84.178 85.6049 86.6419 87.3299C89.2891 89.1805 89.8287 93.3474 87.7837 96.0048C85.8109 98.5906 81.9333 99.3284 79.4594 97.5974Z" fill="#E83338"/>
<path d="M36.2873 56.4096C38.9112 57.8563 39.9145 61.6116 38.4246 64.4613C36.8858 67.4112 32.8572 68.7217 30.0469 67.1764C27.2666 65.6492 26.3402 61.5942 28.135 58.7417C29.8383 56.0358 33.6334 54.9448 36.2873 56.4096Z" fill="#E83338"/>
<path d="M84.9011 82.1379C83.0932 85.0114 78.9826 86.0121 76.3391 84.2216C73.8091 82.5142 73.0933 78.6735 74.8097 75.9466C76.6176 73.0732 80.7283 72.0725 83.3717 73.863C85.9018 75.5704 86.611 79.4216 84.9011 82.1379Z" fill="#E83338"/>
<path d="M49.9119 53.3303C52.6339 54.9952 53.395 59.0945 51.4933 61.8535C49.6734 64.5033 45.8436 65.429 43.2781 63.8445C40.5561 62.1795 39.795 58.0802 41.6868 55.3152C43.5101 52.682 47.3464 51.7457 49.9119 53.3303Z" fill="#E83338"/>
<path d="M54.2809 131.929C52.523 134.832 48.4326 135.889 45.7399 134.155C43.1771 132.5 42.4018 128.666 44.0782 125.915C45.8361 123.011 49.9165 121.949 52.6127 123.699C55.1754 125.354 55.9473 129.171 54.2809 131.929Z" fill="#E83338"/>
<path d="M14.626 118.749C16.9059 116.002 19.5256 115.382 22.3847 117.159C25.1138 118.857 25.5928 122.526 23.4383 125.204C21.1788 128.006 18.4315 128.434 15.7136 126.497C12.9422 124.513 12.8621 121.751 14.626 118.749Z" fill="#E83338"/>
<path d="M72.9375 127.458C70.2429 125.464 69.5481 122.892 71.304 119.771C72.9784 116.802 76.655 115.856 79.2824 117.738C82.0231 119.703 82.5572 122.466 80.6145 125.445C78.6688 128.451 75.9425 128.934 72.9375 127.458Z" fill="#E83338"/>
<path d="M14.2148 84.3938C12.1249 87.2555 9.52477 88.2198 6.57303 86.4588C3.65128 84.716 3.02436 81.9683 4.89367 78.8861C6.76643 75.8206 9.52073 75.0508 12.4621 76.7622C15.4269 78.5022 15.8116 81.2186 14.2148 84.3938Z" fill="#E83338"/>
<path d="M40.5109 134.935C38.4506 137.772 35.8308 138.767 32.8733 137.104C29.9523 135.448 29.2792 132.73 30.919 129.552C32.4838 126.516 36.1471 125.46 38.8405 127.238C41.6672 129.111 42.0977 131.754 40.5109 134.935Z" fill="#E83338"/>
<path d="M83.0931 110.792C80.4211 108.739 79.7824 106.143 81.5883 103.052C83.3126 100.114 87.0096 99.2239 89.5978 101.169C92.2993 103.196 92.7738 105.967 90.7977 108.911C88.7855 111.891 86.0519 112.298 83.0931 110.792Z" fill="#E83338"/>
<path d="M22.9832 60.2337C25.6125 62.3332 26.2285 64.9873 24.2162 67.9673C22.1974 70.9579 19.3892 71.5501 16.5665 69.6942C13.7138 67.82 13.292 65.0095 15.2777 62.0277C17.2896 59.0041 20.0171 58.6516 22.9832 60.2337Z" fill="#E83338"/>
<path d="M64.7914 58.1297C62.4872 61.1358 59.8433 62.0158 56.9473 60.1876C54.0613 58.3655 53.5202 55.5686 55.4695 52.535C57.4187 49.5014 60.2168 48.8159 63.1124 50.6006C66.058 52.4156 66.2673 55.17 64.7914 58.1297Z" fill="#E83338"/>
<path d="M81.3114 68.5194C79.178 71.3403 76.5998 72.1591 73.6357 70.5061C70.8016 68.932 70.1207 65.2997 72.1618 62.5383C74.2748 59.6617 77.0137 59.027 79.8301 60.8502C82.6764 62.6917 82.9585 65.418 81.3114 68.5194Z" fill="#E83338"/>
<path d="M-0.177744 116.223C-2.5363 114.374 -3.35911 111.941 -1.74563 109.225C-0.128702 106.525 2.55528 105.756 5.13263 107.233C7.71997 108.715 8.32631 111.406 6.72591 114.102C5.13242 116.83 2.55499 117.274 -0.177744 116.223Z" fill="#E83338"/>
<path d="M19.5848 139.863C17.2727 138.028 16.4399 135.589 18.0599 132.862C19.6834 130.151 22.3939 129.384 24.9778 130.85C27.5751 132.338 28.1849 135.046 26.5879 137.759C24.9748 140.519 22.3909 140.972 19.5848 139.863Z" fill="#E83338"/>
<path d="M92.5561 115.025C94.5828 116.788 95.2427 119.151 93.7156 121.905C92.3253 124.397 88.4659 125.304 86.4101 123.61C84.1439 121.745 83.6982 119.238 85.3352 116.55C86.7204 114.243 90.2269 113.526 92.5561 115.025Z" fill="#E83338"/>
<path d="M10.6084 70.7388C8.47879 73.2447 6.00691 74.1136 3.5037 72.4947C1.02047 70.8879 0.500052 68.1901 2.22095 65.5664C3.93531 62.9531 6.63437 62.2941 9.14067 63.886C11.667 65.4901 11.8087 68.0882 10.6084 70.7388Z" fill="#E83338"/>
<path d="M76.1817 47.679C78.4903 49.4975 79.3132 51.9305 77.6797 54.6349C76.0627 57.3349 73.3687 58.0973 70.7979 56.6105C68.217 55.1178 67.6207 52.4324 69.2211 49.7368C70.8346 47.0203 73.402 46.5709 76.1817 47.679Z" fill="#E83338"/>
<path d="M47.6909 47.674C45.7829 50.1119 43.3549 51.0652 40.7667 49.5824C38.195 48.0953 37.5854 45.43 39.1798 42.7441C40.7807 40.0477 43.459 39.2895 46.0272 40.7602C48.6219 42.2325 48.9389 44.7925 47.6909 47.674Z" fill="#E83338"/>
<path d="M56.6228 145.035C54.5486 147.43 52.0572 148.331 49.534 146.7C47.0308 145.081 46.5035 142.35 48.2375 139.705C49.9749 137.077 52.7035 136.393 55.2232 138.007C57.7595 139.617 57.9742 142.231 56.6228 145.035Z" fill="#E83338"/>
<path d="M96.022 71.3069C98.3341 73.1419 99.1669 75.5809 97.5469 78.308C95.9234 81.0184 93.2129 81.7852 90.6255 80.3029C88.0281 78.8145 87.4248 76.0961 89.0318 73.39C90.6318 70.6509 93.2158 70.1971 96.022 71.3069Z" fill="#E83338"/>
<path d="M2.04233 93.7636C4.4089 95.776 5.13254 98.2354 3.39571 100.863C1.68194 103.475 -1.01272 104.15 -3.51815 102.559C-6.00706 100.963 -6.51729 98.2723 -4.81697 95.6373C-3.08705 92.977 -0.521649 92.6852 2.04233 93.7636Z" fill="#E83338"/>
<path d="M93.7379 93.8009C91.4258 91.9659 90.5995 89.5164 92.2295 86.7955C93.853 84.085 96.5635 83.3182 99.1609 84.8066C101.758 86.295 102.352 89.0073 100.755 91.7194C99.1215 94.4674 96.5275 94.9151 93.7379 93.8009Z" fill="#E83338"/>
<path d="M34.3049 50.8122C32.3476 53.3069 29.9131 54.2707 27.3314 52.7774C24.7598 51.2903 24.1567 48.6146 25.7511 45.9286C27.352 43.2323 30.0237 42.4845 32.5985 43.9447C35.2132 45.4291 35.4906 48.0084 34.3049 50.8122Z" fill="#E83338"/>
<path d="M70.0586 141.856C68.0205 144.215 65.6375 145.008 63.0101 143.588C60.6225 142.314 59.9528 138.443 61.747 136.253C63.7251 133.858 66.3177 133.148 68.7716 134.824C71.2091 136.504 71.4169 139.085 70.0586 141.856Z" fill="#E83338"/>
<path d="M102.357 98.6777C104.676 100.459 105.139 102.717 103.392 105.252C101.614 107.811 99.2216 108.179 96.8612 106.531C94.6443 104.985 94.31 102.718 95.8566 100.307C97.5275 97.6976 99.814 97.3231 102.357 98.6777Z" fill="#E83338"/>
<path d="M76.7589 140.133C74.3176 138.307 73.7418 136.096 75.3965 133.534C77.0511 130.972 79.3823 130.394 81.8211 131.916C84.2698 133.444 84.6875 135.776 83.0793 138.351C81.4219 140.984 79.1347 141.271 76.7589 140.133Z" fill="#E83338"/>
<path d="M-6.59124 88.776C-8.85652 86.9983 -9.30655 84.7624 -7.55197 82.2612C-5.77777 79.7286 -3.41479 79.3861 -1.08106 81.0321C1.1193 82.5829 1.41366 84.8254 -0.133315 87.1927C-1.81411 89.7963 -4.07447 90.1289 -6.59124 88.776Z" fill="#E83338"/>
<path d="M92.6131 58.3467C94.9472 60.0363 95.5395 62.243 93.8552 64.8302C92.1544 67.4219 89.819 67.8966 87.3964 66.3266C85.1337 64.8535 84.7136 62.6358 86.1838 60.193C87.7847 57.5408 90.0305 57.055 92.6131 58.3467Z" fill="#E83338"/>
<path d="M14.267 55.774C11.7668 54.0415 11.0953 51.8733 12.7296 49.2559C14.3674 46.6549 16.6655 46.0854 19.1242 47.6196C21.4096 49.0343 21.8824 51.2118 20.4787 53.6804C18.9478 56.375 16.715 56.8399 14.267 55.774Z" fill="#E83338"/>
<path d="M42.8797 147.927C40.8637 150.516 38.5916 151.087 36.2043 149.437C33.777 147.763 33.5672 145.341 35.3357 142.862C37.0025 140.523 39.2627 140.103 41.552 141.535C44.0681 143.133 44.1841 145.441 42.8797 147.927Z" fill="#E83338"/>
<path d="M3.28032 129.257C0.795978 127.433 0.243329 125.207 1.95754 122.638C3.67829 120.058 6.02051 119.617 8.42994 121.208C10.6795 122.702 11.0565 124.922 9.57642 127.359C7.94944 130.053 5.6791 130.379 3.28032 129.257Z" fill="#E83338"/>
<path d="M60.5913 44.4746C58.7094 46.8706 56.4738 47.4495 54.0965 45.8059C51.6891 44.144 51.4797 41.7648 53.2351 39.3066C54.8889 36.9889 57.1226 36.5676 59.3788 38.0079C61.8616 39.5711 62.0668 41.8466 60.5913 44.4746Z" fill="#E83338"/>
<path d="M90.3225 136.425C88.3853 134.63 87.8138 132.522 89.4025 130.397C90.942 128.328 93.2307 127.84 95.2453 129.379C97.0497 130.747 97.4029 132.896 96.0452 134.916C94.5598 137.118 92.4211 137.322 90.3225 136.425Z" fill="#E83338"/>
<path d="M89.0179 45.3333C90.8216 46.6147 91.5666 48.4665 90.4621 50.6546C89.2434 53.0477 87.0594 53.7875 84.8524 52.6224C82.6254 51.4453 82.1324 49.2122 83.5079 46.943C84.7723 44.8518 86.7801 44.4383 89.0179 45.3333Z" fill="#E83338"/>
<path d="M106.47 118.127C104.916 120.173 102.875 121.015 100.71 119.759C98.5545 118.51 98.1009 116.257 99.4637 114.008C100.725 111.944 102.868 111.337 104.882 112.371C107.113 113.521 107.446 115.658 106.47 118.127Z" fill="#E83338"/>
<path d="M5.24285 51.1521C7.03317 52.4109 7.77124 54.2297 6.67326 56.4074C5.4676 58.7797 3.31008 59.521 1.11303 58.362C-1.08747 57.1865 -1.59672 55.0013 -0.221168 52.7321C1.0467 50.6574 3.01806 50.2361 5.24285 51.1521Z" fill="#E83338"/>
<path d="M12.4258 140.558C10.8754 142.577 8.83735 143.392 6.71172 142.117C4.59608 140.849 4.14938 138.629 5.53562 136.409C6.8107 134.367 8.93368 133.791 10.9248 134.84C13.1224 135.999 13.4587 138.109 12.4258 140.558Z" fill="#E83338"/>
<path d="M73.7198 40.777C72.3145 42.6967 70.4122 43.4923 68.345 42.4553C66.0814 41.3137 65.4825 39.1171 66.8118 36.8336C68.1376 34.5336 70.3797 33.9442 72.5322 35.2638C74.4882 36.4787 74.7542 38.5024 73.7198 40.777Z" fill="#E83338"/>
<path d="M23.2614 152.393C21.3593 150.85 20.7221 148.804 22.1644 146.604C23.5937 144.425 25.8426 143.912 27.9153 145.27C29.7982 146.513 30.234 148.639 29.0058 150.695C27.6568 152.965 25.556 153.351 23.2614 152.393Z" fill="#E83338"/>
<path d="M66.9363 155.806C65.0323 154.42 64.619 152.611 66.0556 150.509C67.358 148.599 69.1672 148.195 71.0129 149.343C73.0684 150.618 73.3632 152.529 71.9496 154.617C70.6541 156.559 68.8935 156.82 66.9363 155.806Z" fill="#E83338"/>
<path d="M108.438 69.2117C110.544 70.6479 111.083 72.389 109.71 74.5442C108.474 76.4795 106.712 76.9845 104.827 75.8993C102.756 74.7154 102.352 72.8685 103.676 70.7266C104.921 68.7538 106.655 68.4918 108.438 69.2117Z" fill="#E83338"/>
<path d="M57.6576 152.543C59.4318 153.849 59.9235 155.533 58.7179 157.53C57.4077 159.695 55.5367 160.22 53.4911 158.951C51.6354 157.797 51.2556 156.022 52.4347 154.023C53.7479 151.832 55.5805 151.456 57.6576 152.543Z" fill="#E83338"/>
<path d="M111.672 82.6274C113.778 84.0635 114.32 85.8212 112.941 87.9868C111.698 89.9326 109.93 90.448 108.025 89.3507C105.944 88.1608 105.527 86.2913 106.873 84.1345C108.109 82.1557 109.856 81.8727 111.672 82.6274Z" fill="#E83338"/>
<path d="M43.2043 33.6576C41.8213 35.4753 40.1259 36.0499 38.2533 34.8999C36.1908 33.6348 35.909 31.7027 37.3597 29.6661C38.6859 27.7849 40.5161 27.4799 42.323 28.691C44.1498 29.9142 44.2975 31.664 43.2043 33.6576Z" fill="#E83338"/>
<path d="M106.467 60.8622C105.219 62.5306 103.58 63.2121 101.842 62.2881C99.9077 61.2594 99.4836 59.3564 100.726 57.4102C101.845 55.6629 103.648 55.2256 105.35 56.229C107.066 57.2549 107.249 58.9689 106.467 60.8622Z" fill="#E83338"/>
<path d="M56.4888 30.2877C55.1765 31.8597 53.5349 32.5247 51.859 31.5229C50.0132 30.4181 49.6288 28.4958 50.9419 26.6355C52.1077 24.989 53.9204 24.5578 55.564 25.6554C57.1975 26.747 57.3348 28.4473 56.4888 30.2877Z" fill="#E83338"/>
<path d="M80.4933 152.439C78.868 151.093 78.3494 149.364 79.6783 147.456C80.8599 145.763 82.642 145.313 84.3077 146.352C86.1468 147.511 86.5042 149.387 85.2019 151.296C84.0172 153.017 82.3128 153.254 80.4933 152.439Z" fill="#E83338"/>
<path d="M24.8742 38.2266C22.9895 36.7662 22.5078 35.0885 23.7568 33.1323C25.1299 30.9772 27.0485 30.5963 28.9921 31.9624C30.7724 33.2151 30.9638 35.0488 29.668 36.9477C28.346 38.8884 26.5908 39.0077 24.8742 38.2266Z" fill="#E83338"/>
<path d="M111.025 102.436C109.538 101 109.059 99.2522 110.485 97.4322C111.724 95.8452 113.533 95.4411 115.123 96.5786C116.85 97.828 117.142 99.7222 115.749 101.533C114.501 103.158 112.789 103.361 111.025 102.436Z" fill="#E83338"/>
<path d="M43.8874 155.767C45.6529 157.242 46.201 158.945 44.9153 160.85C43.7668 162.535 41.9881 163.001 40.326 161.978C38.4939 160.853 38.1399 158.993 39.3892 157.08C40.5307 155.362 42.2528 155.252 43.8874 155.767Z" fill="#E83338"/>
<path d="M16.1492 39.9487C14.7539 41.4993 13.0918 42.1085 11.4348 40.9883C9.80128 39.8967 9.46408 38.0752 10.6292 36.3416C11.7977 34.6247 13.6069 34.1769 15.267 35.2701C16.9106 36.3678 17.0382 38.1055 16.1492 39.9487Z" fill="#E83338"/>
<path d="M108.688 131.027C107.439 132.652 105.969 133.132 104.422 132.166C102.876 131.199 102.554 129.618 103.594 127.997C104.634 126.375 106.209 125.972 107.761 126.928C109.324 127.89 109.47 129.423 108.688 131.027Z" fill="#E83338"/>
<path d="M31.1393 163.229C30.1052 164.753 28.9032 165.266 27.5654 164.628C26.0346 163.902 25.582 162.53 26.4997 160.95C27.4108 159.38 28.8165 159.049 30.2627 159.955C31.5589 160.77 31.5733 162.049 31.1393 163.229Z" fill="#E83338"/>
<path d="M9.57959 150.488C10.9538 148.794 12.4357 148.451 13.9101 149.533C15.4144 150.633 15.4878 152.237 14.3209 153.752C13.2851 155.102 11.8424 155.382 10.4492 154.48C8.87605 153.468 8.82679 151.98 9.57959 150.488Z" fill="#E83338"/>
<path d="M69.2168 26.6782C68.2295 27.8842 67.004 28.3683 65.728 27.609C64.272 26.7406 64.0009 25.2768 65.0624 23.8414C65.9667 22.6139 67.3264 22.3123 68.5636 23.178C69.7773 24.015 69.8843 25.2782 69.2168 26.6782Z" fill="#E83338"/>
<path d="M86.1076 37.0489C84.7569 38.7707 83.2673 38.9936 81.7961 37.8849C80.4683 36.8777 80.3364 35.4118 81.3548 33.9793C82.5337 32.312 84.0801 32.1526 85.5513 33.2612C86.9022 34.2535 86.8945 35.6781 86.1076 37.0489Z" fill="#E83338"/>
<path d="M102.593 47.0587C101.313 48.5349 99.9603 48.9131 98.6389 47.8953C97.5144 47.0258 97.284 45.6733 98.1979 44.4083C99.223 42.9652 100.643 42.6999 101.977 43.6967C103.145 44.5635 103.113 45.8725 102.593 47.0587Z" fill="#E83338"/>
<path d="M2.09768 42.6534C1.13041 43.8715 -0.101609 44.366 -1.37412 43.6233C-2.84309 42.7759 -3.12075 41.3226 -2.08268 39.8587C-1.19192 38.6086 0.161167 38.3174 1.4079 39.1456C2.64156 39.9947 2.74855 41.2578 2.09768 42.6534Z" fill="#E83338"/>
<path d="M118.714 114.037C117.568 115.652 116.299 116.095 114.839 115.21C113.57 114.44 113.241 113.201 113.958 111.832C114.76 110.282 116.078 109.739 117.609 110.509C119.144 111.295 119.268 112.641 118.714 114.037Z" fill="#E83338"/>
<path d="M98.1314 147.48C97.1195 148.902 95.8441 149.355 94.3848 148.47C93.1154 147.701 92.7866 146.462 93.504 145.092C94.3059 143.543 95.6302 142.989 97.1549 143.769C98.653 144.548 98.9031 145.869 98.1314 147.48Z" fill="#E83338"/>
</g>
<defs>
<filter id="filter0_f_9_492" x="-27.1662" y="18.6836" width="150.182" height="150.212" filterUnits="userSpaceOnUse" color-interpolation-filters="sRGB">
<feFlood flood-opacity="0" result="BackgroundImageFix"/>
<feBlend mode="normal" in="SourceGraphic" in2="BackgroundImageFix" result="shape"/>
<feGaussianBlur stdDeviation="2" result="effect1_foregroundBlur_9_492"/>
</filter>
</defs>
</svg>
