<?xml version="1.0" encoding="utf-8"?>
<!-- Generator: Adobe Illustrator 27.1.1, SVG Export Plug-In . SVG Version: 6.00 Build 0)  -->
<svg version="1.1" id="Layer_1" xmlns="http://www.w3.org/2000/svg" xmlns:xlink="http://www.w3.org/1999/xlink" x="0px" y="0px"
	 viewBox="0 0 34 30" style="enable-background:new 0 0 34 30;" xml:space="preserve">
<g>
	<path style="fill:#E83338;" d="M1.08,14.63c0.13-0.2,0.18-0.44,0.33-0.63c0.36-0.43,0.83-0.6,1.38-0.6c9.46,0,18.91,0,28.37,0.01
		c0.69,0,1.24,0.25,1.57,0.93c0.44,0.9-0.1,1.95-1.05,2.22c-0.18,0.05-0.36,0.04-0.54,0.04c-9.48,0-18.95,0-28.43,0
		c-0.77,0-1.31-0.4-1.57-1.16c-0.01-0.02-0.04-0.04-0.06-0.06C1.08,15.13,1.08,14.88,1.08,14.63z"/>
	<path style="fill:#E83338;" d="M20.94,7.05c-3.48,0-6.96,0-10.44,0c-0.76,0-1.44-0.78-1.47-1.48c-0.05-0.96,0.7-1.7,1.71-1.7
		c6.81,0.02,13.63,0.01,20.44,0.01c0.93,0,1.56,0.52,1.72,1.46c0.13,0.77-0.69,1.71-1.49,1.71C27.92,7.05,24.43,7.05,20.94,7.05z"/>
	<path style="fill:#E83338;" d="M24.09,26.13c-2.42,0-4.85,0.01-7.27-0.01c-0.68,0-1.1-0.44-1.34-1.04
		c-0.22-0.56-0.09-1.07,0.27-1.52c0.35-0.44,0.81-0.6,1.37-0.6c4.65,0.01,9.3,0,13.95,0.01c0.85,0,1.43,0.25,1.72,1.1
		c0.37,1.07-0.49,2.06-1.43,2.07C28.94,26.14,26.52,26.14,24.09,26.13C24.09,26.13,24.09,26.13,24.09,26.13z"/>
</g>
</svg>
