<svg width="20" height="20" viewBox="0 0 20 20" fill="none" xmlns="http://www.w3.org/2000/svg">
<path d="M1.72501 3.8334C2.39167 0.950065 6.73334 0.950065 7.39167 3.8334C7.78334 5.52506 6.70834 6.9584 5.77501 7.85006C5.09167 8.50006 4.01667 8.49173 3.33334 7.85006C2.40834 6.9584 1.33334 5.52506 1.72501 3.8334Z" stroke="#E83338"/>
<path d="M12.5583 13.8334C13.225 10.9501 17.5917 10.9501 18.2583 13.8334C18.65 15.5251 17.575 16.9584 16.6333 17.8501C15.95 18.5001 14.8667 18.4917 14.1833 17.8501C13.2417 16.9584 12.1667 15.5251 12.5583 13.8334Z" stroke="#E83338"/>
<path d="M9.99997 4.1665H12.2333C13.775 4.1665 14.4916 6.07484 13.3333 7.0915L6.67497 12.9165C5.51664 13.9248 6.23331 15.8332 7.76664 15.8332H9.99997" stroke="#E83338" stroke-linecap="round" stroke-linejoin="round"/>
<path d="M4.57185 4.58317H4.58148" stroke="#E83338" stroke-width="2" stroke-linecap="round" stroke-linejoin="round"/>
<path d="M15.4052 14.5832H15.4148" stroke="#E83338" stroke-width="2" stroke-linecap="round" stroke-linejoin="round"/>
</svg>
